General                          : ChattChitto RG - Movies [R2L]
==========
Complete name                    : The Italian Job 2003 720p HDDVDRip H264 [ChattChitto RG]
Format                           : MPEG-4
Format profile                   : Base Media
Codec ID                         : isom
File size                        : 2.13 GiB
Duration                         : 1h 50mn
Overall bit rate                 : 2 763 Kbps
Encoded date                     : UTC 2011-05-06 22:13:57

Video
==========
ID                               : 1
Format                           : AVC
Format/Info                      : Advanced Video Codec
Format profile                   : High@L4.1
Format settings, CABAC           : Yes
Format settings, ReFrames        : 4 frames
Codec ID                         : avc1
Codec ID/Info                    : Advanced Video Coding
Duration                         : 1h 50mn
Bit rate mode                    : Variable
Bit rate                         : 2 400 Kbps
Maximum bit rate                 : 19.9 Mbps
Width                            : 1 280 pixels
Height                           : 528 pixels
Display aspect ratio             : 2.40:1
Frame rate mode                  : Constant
Frame rate                       : 23.976 fps
Color space                      : YUV
Chroma subsampling               : 4:2:0
Bit depth                        : 8 bits
Scan type                        : Progressive
Bits/(Pixel*Frame)               : 0.148
Stream size                      : 1.85 GiB (87%)
Writing library                  : x264 core 114 r1924 08d04a4
Encoded date                     : UTC 2011-04-23 16:44:23

Audio
==========
ID                               : 2
Format                           : AAC
Format/Info                      : Advanced Audio Codec
Format profile                   : LC
Codec ID                         : 40
Duration                         : 1h 50mn
Bit rate mode                    : Variable
Bit rate                         : 352.8 Kbps
Maximum bit rate                 : 452 Kbps
Channel(s)                       : 6 channels
Channel positions                : Front: L C R, Side: L R, LFE
Sampling rate                    : 48.0 KHz
Compression mode                 : Lossy
Stream size                      : 284 MiB (13%)
Language                         : Italian
Encoded date                     : UTC 2011-05-06 22:14:51

Subtitles                        : English | Spanish


----------------------------------------------------
IMDB Link: http://www.imdb.com/title/tt0317740/
----------------------------------------------------



Screen Shots:
==============    
http://chattchitto.net/chattchittorg/movies/hddvdrip/2011/the_italian_job/1.png 
http://chattchitto.net/chattchittorg/movies/hddvdrip/2011/the_italian_job/2.png 
http://chattchitto.net/chattchittorg/movies/hddvdrip/2011/the_italian_job/3.png 
http://chattchitto.net/chattchittorg/movies/hddvdrip/2011/the_italian_job/4.png 
http://chattchitto.net/chattchittorg/movies/hddvdrip/2011/the_italian_job/5.png 
http://chattchitto.net/chattchittorg/movies/hddvdrip/2011/the_italian_job/6.png 
http://chattchitto.net/chattchittorg/movies/hddvdrip/2011/the_italian_job/7.png



ScreenShots Comparison:
=========================  
http://screenshotcomparison.com/comparison/52856



Plot:
======
Thieves plan to pull off the heist of their lives by creating Los Angeles' largest ever traffic jam.



Release Info:
==============
original name .... : The Italian Job 2003 720p HDDVDRip H264 [ChattChitto RG]
ripper.............: IPT
encoder............: Recalled2Life (R2L)
video codec........: H264/.MP4
video bitrate......: 2400
audio codec........: AAC-LC
aspect ratio.......: 2.40:1
resolution.........: 1280 x 528
genre..............: Action | Crime | Thriller
runtime............: 1h 50mn
language...........: English
rating.............: PG-13
subtitles..........: English | Spanish
sample.............: Yes
2ch Audio..........: 2ch Audio for XBox Viewers
Compatibility .....: XBox | PS3 | WD Live



Source:
========
The Italian Job 2003 HD-DVD 1080p x264 DTS 5.1-IPT  THANKS!



Notes:
=======
ChattChitto RG Encourages Burning this Film with ConvertXtoDVD and Playing with VLC media player.
XBox 360 | PS3 | WD Live - Compatible 
Enhanced for your viewing pleasure ;)